inDegrees=no
num_controls=7
num_derivatives=13
num_iterations=114
num_multipliers=7
num_parameters=0
num_slacks=7
num_states=26
objective=0.444665
objective_accelerations=0.058003
objective_balance=0.003667
objective_effort=0.023535
objective_height=0.353955
objective_ligament=0.005505
solver_duration=1636.929511
status=Solve_Succeeded
success=true
DataType=double
version=3
OpenSimVersion=4.5
endheader
time	/jointset/ground_pelvis/pelvis_tilt/value	/jointset/ground_pelvis/pelvis_tx/value	/jointset/ground_pelvis/pelvis_ty/value	/jointset/hip_l/hip_flexion_l/value	/jointset/hip_l/hip_adduction_l/value	/jointset/hip_l/hip_rotation_l/value	/jointset/back/lumbar_extension/value	/jointset/patellofemoral_l/patellar_flexion_l/value	/jointset/knee_l/knee_flexion_l/value	/jointset/knee_l/knee_adduction_l/value	/jointset/knee_l/knee_rotation_l/value	/jointset/ankle_l/ankle_angle_l/value	/jointset/subtalar_l/subtalar_angle_l/value	/jointset/ground_pelvis/pelvis_tilt/speed	/jointset/ground_pelvis/pelvis_tx/speed	/jointset/ground_pelvis/pelvis_ty/speed	/jointset/hip_l/hip_flexion_l/speed	/jointset/hip_l/hip_adduction_l/speed	/jointset/hip_l/hip_rotation_l/speed	/jointset/back/lumbar_extension/speed	/jointset/patellofemoral_l/patellar_flexion_l/speed	/jointset/knee_l/knee_flexion_l/speed	/jointset/knee_l/knee_adduction_l/speed	/jointset/knee_l/knee_rotation_l/speed	/jointset/ankle_l/ankle_angle_l/speed	/jointset/subtalar_l/subtalar_angle_l/speed	/forceset/tau_hip_flexion_l	/forceset/tau_hip_adduction_l	/forceset/tau_hip_rotation_l	/forceset/tau_knee_flexion_l	/forceset/tau_ankle_angle_l	/forceset/tau_subtalar_angle_l	/forceset/tau_lumbar_extension	lambda_cid13_p0	lambda_cid13_p1	lambda_cid13_p2	lambda_cid13_p3	lambda_cid13_p4	lambda_cid13_p5	lambda_cid14_p0	/jointset/ground_pelvis/pelvis_tilt/accel	/jointset/ground_pelvis/pelvis_tx/accel	/jointset/ground_pelvis/pelvis_ty/accel	/jointset/hip_l/hip_flexion_l/accel	/jointset/hip_l/hip_adduction_l/accel	/jointset/hip_l/hip_rotation_l/accel	/jointset/back/lumbar_extension/accel	/jointset/patellofemoral_l/patellar_flexion_l/accel	/jointset/knee_l/knee_flexion_l/accel	/jointset/knee_l/knee_adduction_l/accel	/jointset/knee_l/knee_rotation_l/accel	/jointset/ankle_l/ankle_angle_l/accel	/jointset/subtalar_l/subtalar_angle_l/accel	gamma_cid13_p0	gamma_cid13_p1	gamma_cid13_p2	gamma_cid13_p3	gamma_cid13_p4	gamma_cid13_p5	gamma_cid14_p0
1	-0.564678069409455	-0.08813229247241705	0.5669465892644986	1.871757470669229	-0.4671228330277351	0.01969681571518052	-0.2617562309589613	1.391926318900129	1.391926318900369	-0.08623383106090511	-0.1745207637850859	0.2071020029477108	-0.01738169461797746	-0.01722033031533848	0.01031584557603296	0.003075729965371387	-0.002636449889460699	-0.002548473408309436	0.003470402652129545	8.437948834798587e-06	0.0001681757825058285	0.000168175782505986	-0.006285959187312588	-0.0002782316075686542	0.01969324138455026	0.00806877724755113	-0.34249692277034	0.0101150800216915	0.0003784098525474695	-0.3013330664854699	0.04556100993817877	0.03194868285939056	0.2905350650240239	-25.47429016471914	-10.16324069858325	2.139109984757457	6.541381864839712	-644.9182200771264	-46.85816591458841	-1.28639551153192	1.565570156934069	0.2655009793925618	2.00949998378049	-6.983660178455007	-0.109687851358121	-2.362326465484696	-0.02164282676580578	-5.31042011472586	-5.310420114725817	-0.6103335410561862	-0.03184074386282262	-0.5746539408708103	-0.433367650762965	5.060250905913254e-09	1.907890443374059e-08	-1.118020955712301e-08	3.58010874073825e-09	-1.589421566434571e-09	2.140667395216056e-08	2.921286302405372e-09
1.01	-0.5647729794467348	-0.08801591881726248	0.5670776738346631	1.871383272829167	-0.4671526688379855	0.01961223702389851	-0.2617561694581132	1.391662580544022	1.391662580544061	-0.08632429762412787	-0.1745236790535624	0.2072703772110849	-0.01732112453202327	-0.001761595099338614	0.01296136960365046	0.02313726402509002	-0.07219334646496316	-0.003407044069991292	-0.02037445596508045	4.372583713110499e-06	-0.05291417551350792	-0.05291417551350242	-0.01180295993112607	-0.0002878921823222694	0.01397670554410908	0.004056755503378002	-0.3423895773928585	0.01022098377266117	0.000361529057547636	-0.30119262237422	0.0454280903345696	0.03197135188276653	0.2904569020821748	-25.5040457472505	-10.1723633330604	2.145690111646892	6.470151781028013	-644.7771291957415	-46.87413959964969	-1.291680644668121	1.536036364701487	0.264451697358013	2.003889667956778	-6.940240043630128	-0.07219666223479872	-2.393818469073529	0.0102881630116483	-5.306889996822381	-5.306889996821644	-0.5217273588136317	0.0170195981776407	-0.5708883915789775	-0.3833976880203397	-3.079249832236877e-09	1.128799537471927e-08	3.179171938739005e-08	4.790964391296875e-09	-1.210748044801747e-08	7.560677301673909e-08	-9.458376198033628e-09
1.02	-0.5647132998997023	-0.08787301520524944	0.5674092556556027	1.870313798894041	-0.4671907413525855	0.01928955916459816	-0.2617561333000365	1.390868069202998	1.390868069202838	-0.08646980299834364	-0.1745261812653	0.2073814391188649	-0.01730033031386602	0.01369758654740571	0.01562183694772792	0.04317518012037559	-0.1416916689017559	-0.004195814278135985	-0.04414943095166491	3.369394473553351e-06	-0.1059864212008525	-0.1059864212008434	-0.01729372138572884	-0.0001956202587047198	0.008230770265738922	0.0001136036881708522	-0.3422822320153874	0.01032688752363033	0.0003446482625666619	-0.3010521782629693	0.04529517073096197	0.03199402090614251	0.2903787391403144	-25.53925404202157	-10.18045535053657	2.152019318125818	6.418239480637715	-644.7136197887005	-46.86713829475767	-1.306989076906256	1.565659443082972	0.2684896426845387	2.004776390893877	-6.971945350713047	-0.09572776065063131	-2.348349739359536	-0.02103039158939237	-5.308398992992042	-5.308398992992347	-0.6050856832140197	-0.01145424418848385	-0.5805338284566257	-0.4195936649697081	-1.078728095538155e-08	4.258805095659837e-09	7.508939101741751e-08	6.179646548351792e-09	-2.233157382330738e-08	1.284340810895759e-07	-2.141312115277928e-08
1.03	-0.564498989113984	-0.08770340157425884	0.5679410233502452	1.86854979160458	-0.4672362099596016	0.01872964236219286	-0.2617560960884686	1.389542962725676	1.389542962725669	-0.08667002701574698	-0.1745270919213247	0.2074348228762421	-0.01731848244113963	0.02916767884075919	0.01830634607442859	0.06316693498114244	-0.2110836784509194	-0.00487107147422454	-0.06780546344101353	4.871126970969235e-06	-0.159025787221846	-0.1590257872218314	-0.02274000594653908	4.815647258242956e-05	0.002434120706440245	-0.003717202404356401	-0.3418763509831825	0.01050406113297829	0.0002953151832991832	-0.3007827338764108	0.04522327647392173	0.03208832559525408	0.2900977524733966	-25.53524660135846	-10.2343012339106	2.174525048156862	6.299089015191437	-644.3591025759272	-46.93233101709757	-1.332529571493454	1.538146903096607	0.2692515937120223	1.994654887143348	-6.918916279013852	-0.04941028439344126	-2.369980639108411	0.01086018681739092	-5.300335605315783	-5.300335605314788	-0.5127501745269781	0.04752382293647864	-0.5810086423271114	-0.3608136271684901	-1.84909093273527e-08	-2.762612542787731e-09	1.183903865523992e-07	7.570143261595447e-09	-3.255266755057389e-08	1.812473810910683e-07	-3.336353021420154e-08
1.04	-0.5641298848492061	-0.08750677884279137	0.5686723645641902	1.866092646715224	-0.4672876282556405	0.01793401510780219	-0.2617560199133454	1.387687736548414	1.387687736548559	-0.08692438394517384	-0.1745245187718419	0.2074298845134931	-0.01737414053849343	0.04465628235951927	0.02102365704309693	0.08308988398091524	-0.2803191888799155	-0.005385752082524627	-0.09129152134579899	1.116210539403445e-05	-0.2120103611893515	-0.2120103611893308	-0.02812030378785059	0.0005011408498331383	-0.003433653759284379	-0.007387590327856423	-0.3414704699510041	0.01068123474228972	0.0002459821039889927	-0.3005132894898527	0.04515138221687473	0.03218263028431611	0.2898167658064566	-25.53671618538731	-10.28706464146223	2.196717232429452	6.199366535769759	-644.0826616479428	-46.97521190100086	-1.368564418115358	1.569361688164295	0.2750500110780719	1.991015218695065	-6.940645526679535	-0.06361244309292671	-2.314354822446896	-0.02007254240426989	-5.297440582294446	-5.297440582294626	-0.591888339314267	0.03038728500424825	-0.5947588097418203	-0.3875100311642505	-2.618241687616874e-08	-1.034958951484914e-08	1.608655103844363e-07	8.688600390881159e-09	-4.267138909270549e-08	2.320457793626424e-07	-4.517795274890748e-08
